<svg width="66" height="38" viewBox="0 0 66 38" fill="none" xmlns="http://www.w3.org/2000/svg">
<path d="M20.6852 16.4054L21.6146 3.10547L9.5727 19.306L7.61719 25.6309L9.5727 23.8555L20.6852 16.4054Z" fill="url(#paint0_linear_279_9144)"/>
<path d="M15.2344 19.9726L11.3234 16.9766L9.57373 19.3068L5.76562 25.6317L7.72114 23.8563L15.2344 19.9726Z" fill="url(#paint1_linear_279_9144)"/>
<path d="M4.32272 12.3169L0 3.55084L26.5538 18.1979L23.5691 25.2995L4.32272 12.3169Z" fill="url(#paint2_linear_279_9144)"/>
<path d="M5.8369 10.2643L5.39453 0L15.4723 13.166L11.6205 16.5742L5.8369 10.2643Z" fill="url(#paint3_linear_279_9144)"/>
<path d="M21.2031 6.43435L21.6148 3.10547L24.2908 6.10146L21.2031 6.43435Z" fill="#7F7FD5"/>
<path d="M21.8623 22.2584V32.7036H8.56323C7.14703 32.7036 6.02587 32.5897 5.19975 32.3618C4.37363 32.134 3.76879 31.7709 3.38524 31.2725C3.01643 30.774 2.83203 30.0905 2.83203 29.2219C2.83203 28.638 2.89842 27.8904 3.03118 26.979C3.17871 26.0677 3.34835 25.199 3.54013 24.3731L4.86783 24.4372C4.85307 24.5368 4.80144 24.8929 4.71293 25.5052C4.47689 27.1713 4.35888 28.282 4.35888 28.8374C4.35888 29.4497 4.48427 29.9268 4.73506 30.2685C5.0006 30.6103 5.4284 30.8595 6.01849 31.0161C6.62333 31.1585 7.46421 31.2297 8.5411 31.2297H13.5421C13.1438 30.475 12.9446 29.2717 12.9446 27.6199C12.9446 26.1531 13.0995 25.021 13.4093 24.2236C13.7338 23.4261 14.2649 22.8636 15.0025 22.5361C15.7549 22.2086 16.817 22.0448 18.189 22.0448C19.3101 22.0448 20.328 22.0947 21.2427 22.1943L21.8623 22.2584ZM14.6264 27.5771C14.6264 29.3856 14.8993 30.6032 15.4451 31.2297H20.1584V23.5614C19.1552 23.4902 18.4471 23.4546 18.0341 23.4546C17.1047 23.4546 16.3966 23.5899 15.9098 23.8604C15.423 24.131 15.0837 24.5582 14.8919 25.1421C14.7149 25.7259 14.6264 26.5376 14.6264 27.5771ZM35.7358 32.7036H32.9698C32.8813 34.4979 32.5346 35.8295 31.9298 36.698C31.3396 37.5665 30.4029 38.001 29.1195 38.001C28.4409 38.001 27.3271 37.8942 25.7781 37.6806V36.2281C27.1501 36.4276 28.227 36.5271 29.0088 36.5271C29.5251 36.5271 29.9382 36.4344 30.248 36.2494C30.5725 36.0785 30.8307 35.7154 31.0225 35.16C31.2143 34.6047 31.3102 33.7859 31.3102 32.7036H28.0573C26.4493 32.7036 25.3798 32.2123 24.8487 31.2297C24.3324 30.2472 24.0743 28.9727 24.0743 27.4063C24.0743 26.0819 24.207 25.0068 24.4726 24.1808C24.7381 23.3407 25.2175 22.707 25.9109 22.2798C26.6042 21.8383 27.5705 21.6176 28.8097 21.6176C29.3998 21.6176 30.1079 21.6603 30.934 21.7458C31.7749 21.8312 32.4682 21.9238 33.014 22.0235V31.2297H35.7358V32.7036ZM25.7781 27.3635C25.7781 28.5028 25.9699 29.4355 26.3535 30.1617C26.737 30.8738 27.5189 31.2297 28.699 31.2297H31.3102V23.241C30.5136 23.1413 29.8202 23.0915 29.2301 23.0915C28.3302 23.0915 27.6295 23.2552 27.1279 23.5828C26.6263 23.896 26.2723 24.366 26.0658 24.9925C25.874 25.6049 25.7781 26.3952 25.7781 27.3635ZM49.3088 31.2297V32.7036H46.9854C46.2478 32.7036 45.4954 32.6182 44.7283 32.4473C43.9612 32.2764 43.2605 32.0343 42.6261 31.721C41.9918 32.0201 41.2984 32.2622 40.5461 32.4473C39.8085 32.6182 39.0782 32.7036 38.3554 32.7036H35.7443V31.2297H38.289C39.1889 31.2297 40.0888 31.066 40.9886 30.7385C39.8527 29.8983 38.9455 28.9086 38.2669 27.7694C37.5883 26.6301 37.2342 25.6262 37.2047 24.7576L37.1383 23.241C39.0266 22.2869 40.8485 21.8098 42.604 21.8098C44.3447 21.8098 46.1814 22.2869 48.1139 23.241L48.0475 24.7576C48.0178 25.3129 47.8559 25.9466 47.5607 26.6586C47.2655 27.3564 46.8305 28.0684 46.2551 28.7947C45.6946 29.5209 45.0307 30.1617 44.2636 30.7171C45.1487 31.0589 46.0486 31.2297 46.9633 31.2297H49.3088ZM38.8865 24.074C38.8865 25.2417 39.2258 26.3382 39.9044 27.3635C40.5829 28.3746 41.4902 29.229 42.6261 29.9268C43.7473 29.229 44.6545 28.3675 45.3479 27.3422C46.0413 26.3169 46.3879 25.2275 46.3879 24.074C44.9275 23.5472 43.6735 23.2837 42.6261 23.2837C41.6082 23.2837 40.3617 23.5472 38.8865 24.074ZM41.6967 18.2427H43.3785V20.0369H41.6967V18.2427ZM65.2915 22.0235C65.4832 22.8351 65.6456 23.6967 65.7784 24.6081C65.9257 25.5194 65.9996 26.2386 65.9996 26.7654V32.7036H61.8838C60.9841 32.7036 60.1653 32.4046 59.4276 31.8065C58.8965 32.4046 58.1959 32.7036 57.3254 32.7036H49.315V31.2297H52.8998V23.0915H54.6036V31.2297H56.7943C57.4728 31.2297 57.9596 30.9521 58.2548 30.3967C58.5646 29.8271 58.7195 29.1151 58.7195 28.2607V23.0915H60.4233V28.2393C60.4233 29.1079 60.3202 29.8627 60.1135 30.5035C60.3348 30.6886 60.615 30.8595 60.9544 31.0161C61.2939 31.1585 61.6329 31.2297 61.9723 31.2297H64.2958V26.5946C64.2958 26.0534 64.2515 25.377 64.163 24.5653C64.0891 23.7394 64.0006 22.9135 63.8975 22.0875L65.2915 22.0235ZM58.7195 15.6367H60.3791V17.3669H58.7195V15.6367ZM57.3254 18.2427H59.0071V20.0369H57.3254V18.2427ZM60.0914 18.2427H61.7732V20.0369H60.0914V18.2427Z" fill="url(#paint4_linear_279_9144)"/>
<defs>
<linearGradient id="paint0_linear_279_9144" x1="20.5853" y1="6.43434" x2="10.5592" y2="29.0687" gradientUnits="userSpaceOnUse">
<stop stop-color="#7F7FD5"/>
<stop offset="0.370464" stop-color="#86A8E7" stop-opacity="0.69"/>
<stop offset="1" stop-color="#91EAE4" stop-opacity="0.16"/>
</linearGradient>
<linearGradient id="paint1_linear_279_9144" x1="17.7046" y1="8.32148" x2="4.64902" y2="25.52" gradientUnits="userSpaceOnUse">
<stop stop-color="#7F7FD5"/>
<stop offset="0.521988" stop-color="#86A8E7" stop-opacity="0.15"/>
<stop offset="1" stop-color="#91EAE4" stop-opacity="0.45"/>
</linearGradient>
<linearGradient id="paint2_linear_279_9144" x1="-6.89576" y1="-2.66307" x2="17.4878" y2="14.5907" gradientUnits="userSpaceOnUse">
<stop offset="0.316592" stop-color="#7F7FD5"/>
<stop offset="0.539409" stop-color="#86A8E7" stop-opacity="0.69"/>
<stop offset="0.753439" stop-color="#91EAE4"/>
<stop offset="1" stop-color="#91EAE4" stop-opacity="0"/>
</linearGradient>
<linearGradient id="paint3_linear_279_9144" x1="5.15884" y1="-0.396308" x2="13.7183" y2="15.6485" gradientUnits="userSpaceOnUse">
<stop stop-color="#7F7FD5"/>
<stop offset="0.484375" stop-color="#7F7FD5" stop-opacity="0.17"/>
<stop offset="1" stop-color="#91EAE4" stop-opacity="0.16"/>
</linearGradient>
<linearGradient id="paint4_linear_279_9144" x1="41.9104" y1="-1.9001" x2="73.174" y2="44.1243" gradientUnits="userSpaceOnUse">
<stop stop-color="#818BD7"/>
<stop offset="0.501172" stop-color="#88B5DD"/>
<stop offset="1" stop-color="#8FDEE3"/>
</linearGradient>
</defs>
</svg>
